g Mount
v 0.4882253 1.057086 -0.4882253
v -0.04089765 0.8577492 -0.5208349
v -0.6768379 0.1067521 -0.6768379
v -0.6768379 0.1067521 -0.6768379
v -0.4826996 1.090864 0.2758928
v -0.4569158 1.248475 0.4569158
v 0.414986 1.504784 0.414986
v 0.4650904 1.198505 0.4650904
v 0.2232145 1.30606 0.4474953
v -0.414986 1.504784 0.414986
v -0.1130679 1.149857 0.4730488
v -0.4569158 1.248475 0.4569158
v -0.414986 1.504784 0.414986
v -0.414986 1.504784 -0.414986
v 0.414986 1.504784 -0.414986
v 0.414986 1.504784 0.414986
v -0.04089765 0.8577492 -0.5208349
v 0.4882253 1.057086 -0.4882253
v 0.414986 1.504784 -0.414986
v -0.2599093 1.318957 -0.4453856
v -0.414986 1.504784 -0.414986
v -0.4553472 1.258064 -0.4553472
v 0.4882253 1.057086 -0.4882253
v 0.5051693 0.9535102 -0.2517795
v 0.4422097 1.33837 -0.01903209
v 0.414986 1.504784 -0.414986
v 0.414986 1.504784 0.414986
v 0.4650904 1.198505 0.4650904
v -0.4569158 1.248475 0.4569158
v -0.4826996 1.090864 0.2758928
v -0.4583852 1.239493 0.07886481
v -0.4553472 1.258064 -0.4553472
v -0.4946989 1.017514 -0.1512132
v -0.414986 1.504784 0.414986
v -0.414986 1.504784 -0.414986
v -2.556649 -9.551018 -2.556649
v -0.6766287 0.1067521 0.6766287
v -2.556649 -9.551018 2.556649
v -0.6768379 0.1067521 -0.6768379
v -0.4569158 1.248475 0.4569158
v -0.6766287 0.1067521 0.6766287
v 2.556649 -9.551018 2.556649
v -2.556649 -9.551018 2.556649
v 0.6755249 0.1067521 0.6755249
v 0.4650904 1.198505 0.4650904
v 0.2232145 1.30606 0.4474953
v -0.1130679 1.149857 0.4730488
v -0.4569158 1.248475 0.4569158
v 0.6755249 0.1067521 0.6755249
v 2.556649 -9.551018 -2.556649
v 2.556649 -9.551018 2.556649
v 0.6722685 0.1067522 -0.6722685
v 0.4650904 1.198505 0.4650904
v 0.5051693 0.9535102 -0.2517795
v 0.4422097 1.33837 -0.01903209
v 0.4882253 1.057086 -0.4882253
v -0.6768379 0.1067521 -0.6768379
v 0.6722685 0.1067522 -0.6722685
v 0.4882253 1.057086 -0.4882253
v -2.556649 -9.551018 -2.556649
v 2.556649 -9.551018 -2.556649
v -0.04089765 0.8577492 -0.5208349
v -0.2599093 1.318957 -0.4453856
v -0.6768379 0.1067521 -0.6768379
v -0.4553472 1.258064 -0.4553472
v -0.4583852 1.239493 0.07886481
v -0.4826996 1.090864 0.2758928
v -0.4946989 1.017514 -0.1512132
v -0.6768379 0.1067521 -0.6768379
v -0.4553472 1.258064 -0.4553472
vt 0.2044973 0.554591
vt 0.2043633 0.5546274
vt 0.2042361 0.5546451
vt 0.2042361 0.5115094
vt 0.2042813 0.5113692
vt 0.2042938 0.5113234
vt 0.2070552 0.7128185
vt 0.2071624 0.7137247
vt 0.2064738 0.7134147
vt 0.204585 0.7128255
vt 0.2054825 0.7138815
vt 0.2044669 0.7135997
vt 0.204585 0.7648404
vt 0.204717 0.7649093
vt 0.2075495 0.7649
vt 0.2070552 0.7648333
vt 0.2060488 0.7151533
vt 0.2078152 0.7144362
vt 0.2075495 0.7128851
vt 0.2052678 0.713549
vt 0.204717 0.7128944
vt 0.2045971 0.7137693
vt 0.2078152 0.6798968
vt 0.2076978 0.680149
vt 0.2073734 0.678848
vt 0.2075495 0.6783457
vt 0.2070552 0.6782791
vt 0.2071624 0.6791853
vt 0.2044669 0.6790603
vt 0.2044185 0.6795809
vt 0.2045101 0.6791658
vt 0.2045971 0.6792299
vt 0.2044354 0.6799484
vt 0.204585 0.6782861
vt 0.204717 0.678355
vt 0.2041908 0.8438727
vt 0.204285 0.5114144
vt 0.2042573 0.8437196
vt 0.2042361 0.5115094
vt 0.2042938 0.5113234
vt 0.204285 0.5545502
vt 0.2045708 0.7748841
vt 0.2042573 0.7748646
vt 0.2045313 0.5545666
vt 0.2045192 0.5544786
vt 0.2044589 0.5544564
vt 0.2043767 0.554481
vt 0.2042938 0.5544592
vt 0.2045313 0.5114309
vt 0.2045405 0.8438971
vt 0.2045708 0.8437393
vt 0.2045064 0.5115438
vt 0.2045192 0.5113428
vt 0.2045065 0.5114561
vt 0.2045023 0.5113559
vt 0.2044973 0.5114552
vt 0.2042361 0.5546451
vt 0.2045064 0.5546796
vt 0.2044973 0.554591
vt 0.2041908 0.7750176
vt 0.2045405 0.7750419
vt 0.2043633 0.5546274
vt 0.2043037 0.5545238
vt 0.2042361 0.5546451
vt 0.2042507 0.5545346
vt 0.2042756 0.5113571
vt 0.2042813 0.5113692
vt 0.2042591 0.5114196
vt 0.2042361 0.5115094
vt 0.2042507 0.5113988
vn 0.003334133 0.1822623 -0.9832444
vn 0.003575223 0.1837648 -0.9829638
vn 0.0008075 0.191294 -0.9815325
vn -0.9815766 0.191069 3.749893E-05
vn -0.9827383 0.185001 0.0001802156
vn -0.9835261 0.1807661 0.000147768
vn 0 0.1614447 0.9868819
vn 0.001013657 0.1868926 0.9823798
vn 0.0009239779 0.1846455 0.9828047
vn 0 0.1614447 0.9868819
vn 0.000923978 0.1846455 0.9828047
vn 0.0009023448 0.1841033 0.9829065
vn 0 1 0
vn 0 1 0
vn 0 1 0
vn 0 1 0
vn 0.003575223 0.1837648 -0.9829638
vn 0.003334133 0.1822623 -0.9832444
vn 0 0.1614448 -0.9868819
vn 0.003575224 0.1837648 -0.9829638
vn 0 0.1614448 -0.9868819
vn 0.004075794 0.1868831 -0.9823737
vn 0.9833 0.1819775 -0.002309544
vn 0.9830332 0.1834107 -0.002471056
vn 0.9830332 0.1834107 -0.002471056
vn 0.9868817 0.1614448 0
vn 0.9868817 0.1614448 0
vn 0.9826439 0.1854826 -0.002704597
vn -0.9835261 0.1807661 0.000147768
vn -0.9827383 0.185001 0.0001802156
vn -0.9827383 0.185001 0.0001802157
vn -0.9834437 0.1812136 0.0001511955
vn -0.9827383 0.185001 0.0001802156
vn -0.9868819 0.1614448 0
vn -0.9868819 0.1614448 0
vn -0.981577 0.1910671 3.175257E-05
vn -0.9815766 0.191069 3.749908E-05
vn -0.981577 0.1910671 3.175257E-05
vn -0.9815766 0.191069 3.749893E-05
vn -0.9835261 0.1807661 0.000147768
vn 0.000196568 0.1910688 0.9815766
vn 0.00016761 0.1911315 0.9815645
vn 0.00016761 0.1911315 0.9815645
vn 0.0001965718 0.1910688 0.9815766
vn 0.001013657 0.1868926 0.9823798
vn 0.0009239779 0.1846455 0.9828047
vn 0.000923978 0.1846455 0.9828047
vn 0.0009023448 0.1841033 0.9829065
vn 0.9815384 0.1912642 -0.0005710506
vn 0.9815227 0.1913449 -0.0004946702
vn 0.9815227 0.191345 -0.0004946702
vn 0.9815384 0.1912642 -0.000571081
vn 0.9826439 0.1854826 -0.002704597
vn 0.9830332 0.1834107 -0.002471056
vn 0.9830332 0.1834107 -0.002471056
vn 0.9833 0.1819775 -0.002309544
vn 0.0008075 0.191294 -0.9815325
vn 0.0008075633 0.191294 -0.9815325
vn 0.003334133 0.1822623 -0.9832444
vn 0.0006940835 0.1912807 -0.9815351
vn 0.0006940835 0.1912807 -0.9815351
vn 0.003575223 0.1837648 -0.9829638
vn 0.003575224 0.1837648 -0.9829638
vn 0.0008075 0.191294 -0.9815325
vn 0.004075794 0.1868831 -0.9823737
vn -0.9827383 0.185001 0.0001802157
vn -0.9827383 0.185001 0.0001802156
vn -0.9827383 0.185001 0.0001802156
vn -0.9815766 0.191069 3.749893E-05
vn -0.9834437 0.1812136 0.0001511955
g Mount_0
f 3/3/3 2/2/2 1/1/1
f 6/6/6 5/5/5 4/4/4
f 9/9/9 8/8/8 7/7/7
f 7/7/7 10/10/10 9/9/9
f 10/10/10 11/11/11 9/9/9
f 10/10/10 12/12/12 11/11/11
f 15/15/15 14/14/14 13/13/13
f 16/16/16 15/15/15 13/13/13
f 19/19/19 18/18/18 17/17/17
f 17/17/17 20/20/20 19/19/19
f 20/20/20 21/21/21 19/19/19
f 20/20/20 22/22/22 21/21/21
f 25/25/25 24/24/24 23/23/23
f 23/23/23 26/26/26 25/25/25
f 25/25/25 26/26/26 27/27/27
f 27/27/27 28/28/28 25/25/25
f 31/31/31 30/30/30 29/29/29
f 31/31/31 29/29/29 32/32/32
f 32/32/32 33/33/33 31/31/31
f 29/29/29 34/34/34 32/32/32
f 34/34/34 35/35/35 32/32/32
f 38/38/38 37/37/37 36/36/36
f 37/37/37 39/39/39 36/36/36
f 39/39/39 37/37/37 40/40/40
f 43/43/43 42/42/42 41/41/41
f 42/42/42 44/44/44 41/41/41
f 41/41/41 44/44/44 45/45/45
f 45/45/45 46/46/46 41/41/41
f 46/46/46 47/47/47 41/41/41
f 47/47/47 48/48/48 41/41/41
f 51/51/51 50/50/50 49/49/49
f 50/50/50 52/52/52 49/49/49
f 53/53/53 49/49/49 52/52/52
f 52/52/52 54/54/54 53/53/53
f 54/54/54 55/55/55 53/53/53
f 54/54/54 52/52/52 56/56/56
f 59/59/59 58/58/58 57/57/57
f 57/57/57 58/58/58 60/60/60
f 58/58/58 61/61/61 60/60/60
f 64/64/64 63/63/63 62/62/62
f 64/64/64 65/65/65 63/63/63
f 68/68/68 67/67/67 66/66/66
f 67/67/67 68/68/68 69/69/69
f 69/69/69 68/68/68 70/70/70
